<mxfile host="app.diagrams.net" modified="2024-02-25T15:20:07.398Z" agent="Mozilla/5.0 (Windows NT 10.0; Win64; x64) AppleWebKit/537.36 (KHTML, like Gecko) Chrome/122.0.0.0 Safari/537.36" etag="hJ6LQmyKLe4mwtpNu3dq" version="23.1.6" type="device">
  <diagram name="Страница — 1" id="1ROyx39WDwvs4G1nMkMj">
    <mxGraphModel dx="794" dy="446" grid="1" gridSize="10" guides="1" tooltips="1" connect="1" arrows="1" fold="1" page="1" pageScale="1" pageWidth="1169" pageHeight="827" math="0" shadow="0">
      <root>
        <mxCell id="0" />
        <mxCell id="1" parent="0" />
        <mxCell id="luFUjq63p9r3agRqHrN--1" value="Администратор" style="shape=umlActor;verticalLabelPosition=bottom;verticalAlign=top;html=1;" parent="1" vertex="1">
          <mxGeometry x="450" y="270" width="30" height="60" as="geometry" />
        </mxCell>
        <mxCell id="luFUjq63p9r3agRqHrN--42" style="rounded=0;orthogonalLoop=1;jettySize=auto;html=1;exitX=0;exitY=0.3333333333333333;exitDx=0;exitDy=0;exitPerimeter=0;entryX=1;entryY=0.5;entryDx=0;entryDy=0;endArrow=none;endFill=0;" parent="1" source="luFUjq63p9r3agRqHrN--2" target="luFUjq63p9r3agRqHrN--41" edge="1">
          <mxGeometry relative="1" as="geometry" />
        </mxCell>
        <mxCell id="luFUjq63p9r3agRqHrN--2" value="Пользователь" style="shape=umlActor;verticalLabelPosition=bottom;verticalAlign=top;html=1;" parent="1" vertex="1">
          <mxGeometry x="532" y="410" width="30" height="60" as="geometry" />
        </mxCell>
        <mxCell id="luFUjq63p9r3agRqHrN--3" value="Пользователь/&lt;br&gt;Админ" style="shape=umlActor;verticalLabelPosition=bottom;verticalAlign=top;html=1;" parent="1" vertex="1">
          <mxGeometry x="612" y="270" width="30" height="60" as="geometry" />
        </mxCell>
        <mxCell id="luFUjq63p9r3agRqHrN--14" style="rounded=0;orthogonalLoop=1;jettySize=auto;html=1;entryX=0.5;entryY=1;entryDx=0;entryDy=0;endArrow=blockThin;endFill=1;" parent="1" source="luFUjq63p9r3agRqHrN--6" target="luFUjq63p9r3agRqHrN--9" edge="1">
          <mxGeometry relative="1" as="geometry">
            <mxPoint x="600" y="420" as="targetPoint" />
          </mxGeometry>
        </mxCell>
        <mxCell id="luFUjq63p9r3agRqHrN--6" value="Изменение" style="ellipse;whiteSpace=wrap;html=1;" parent="1" vertex="1">
          <mxGeometry x="546" y="660" width="95" height="40" as="geometry" />
        </mxCell>
        <mxCell id="luFUjq63p9r3agRqHrN--15" style="rounded=0;orthogonalLoop=1;jettySize=auto;html=1;entryX=0;entryY=1;entryDx=0;entryDy=0;endArrow=block;endFill=1;" parent="1" source="luFUjq63p9r3agRqHrN--8" target="luFUjq63p9r3agRqHrN--9" edge="1">
          <mxGeometry relative="1" as="geometry" />
        </mxCell>
        <mxCell id="luFUjq63p9r3agRqHrN--8" value="Создание&amp;nbsp;" style="ellipse;whiteSpace=wrap;html=1;" parent="1" vertex="1">
          <mxGeometry x="462" y="630" width="95" height="40" as="geometry" />
        </mxCell>
        <mxCell id="luFUjq63p9r3agRqHrN--9" value="работа с аккаунтом" style="ellipse;whiteSpace=wrap;html=1;" parent="1" vertex="1">
          <mxGeometry x="532" y="580" width="123" height="50" as="geometry" />
        </mxCell>
        <mxCell id="luFUjq63p9r3agRqHrN--16" style="rounded=0;orthogonalLoop=1;jettySize=auto;html=1;entryX=1;entryY=1;entryDx=0;entryDy=0;endArrow=block;endFill=1;" parent="1" source="luFUjq63p9r3agRqHrN--12" target="luFUjq63p9r3agRqHrN--9" edge="1">
          <mxGeometry relative="1" as="geometry" />
        </mxCell>
        <mxCell id="luFUjq63p9r3agRqHrN--12" value="удаление" style="ellipse;whiteSpace=wrap;html=1;" parent="1" vertex="1">
          <mxGeometry x="638" y="630" width="95" height="40" as="geometry" />
        </mxCell>
        <mxCell id="luFUjq63p9r3agRqHrN--18" style="rounded=0;orthogonalLoop=1;jettySize=auto;html=1;entryX=1;entryY=1;entryDx=0;entryDy=0;entryPerimeter=0;endArrow=none;endFill=0;edgeStyle=orthogonalEdgeStyle;" parent="1" source="luFUjq63p9r3agRqHrN--9" target="luFUjq63p9r3agRqHrN--2" edge="1">
          <mxGeometry relative="1" as="geometry">
            <Array as="points">
              <mxPoint x="590" y="470" />
            </Array>
          </mxGeometry>
        </mxCell>
        <mxCell id="luFUjq63p9r3agRqHrN--21" value="работа с чужими аккаунтами" style="ellipse;whiteSpace=wrap;html=1;" parent="1" vertex="1">
          <mxGeometry x="700" y="505" width="123" height="50" as="geometry" />
        </mxCell>
        <mxCell id="luFUjq63p9r3agRqHrN--22" style="rounded=0;orthogonalLoop=1;jettySize=auto;html=1;exitX=0;exitY=0.5;exitDx=0;exitDy=0;entryX=1;entryY=0.3333333333333333;entryDx=0;entryDy=0;entryPerimeter=0;endArrow=none;endFill=0;" parent="1" source="luFUjq63p9r3agRqHrN--21" target="luFUjq63p9r3agRqHrN--2" edge="1">
          <mxGeometry relative="1" as="geometry" />
        </mxCell>
        <mxCell id="luFUjq63p9r3agRqHrN--25" style="rounded=0;orthogonalLoop=1;jettySize=auto;html=1;entryX=1;entryY=0.5;entryDx=0;entryDy=0;" parent="1" source="luFUjq63p9r3agRqHrN--23" target="luFUjq63p9r3agRqHrN--21" edge="1">
          <mxGeometry relative="1" as="geometry" />
        </mxCell>
        <mxCell id="luFUjq63p9r3agRqHrN--23" value="запрос на дружбу" style="ellipse;whiteSpace=wrap;html=1;" parent="1" vertex="1">
          <mxGeometry x="850.5" y="525" width="95" height="40" as="geometry" />
        </mxCell>
        <mxCell id="luFUjq63p9r3agRqHrN--27" style="rounded=0;orthogonalLoop=1;jettySize=auto;html=1;entryX=1;entryY=1;entryDx=0;entryDy=0;" parent="1" source="luFUjq63p9r3agRqHrN--26" target="luFUjq63p9r3agRqHrN--21" edge="1">
          <mxGeometry relative="1" as="geometry" />
        </mxCell>
        <mxCell id="luFUjq63p9r3agRqHrN--26" value="ответ на запрос" style="ellipse;whiteSpace=wrap;html=1;" parent="1" vertex="1">
          <mxGeometry x="891" y="575" width="95" height="40" as="geometry" />
        </mxCell>
        <mxCell id="luFUjq63p9r3agRqHrN--29" style="rounded=0;orthogonalLoop=1;jettySize=auto;html=1;entryX=0.5;entryY=1;entryDx=0;entryDy=0;" parent="1" source="luFUjq63p9r3agRqHrN--28" target="luFUjq63p9r3agRqHrN--21" edge="1">
          <mxGeometry relative="1" as="geometry" />
        </mxCell>
        <mxCell id="luFUjq63p9r3agRqHrN--28" value="просмотр аккаунта друга" style="ellipse;whiteSpace=wrap;html=1;" parent="1" vertex="1">
          <mxGeometry x="796" y="575" width="95" height="40" as="geometry" />
        </mxCell>
        <mxCell id="luFUjq63p9r3agRqHrN--30" style="edgeStyle=orthogonalEdgeStyle;rounded=0;orthogonalLoop=1;jettySize=auto;html=1;exitX=0.5;exitY=1;exitDx=0;exitDy=0;" parent="1" source="luFUjq63p9r3agRqHrN--26" target="luFUjq63p9r3agRqHrN--26" edge="1">
          <mxGeometry relative="1" as="geometry" />
        </mxCell>
        <mxCell id="luFUjq63p9r3agRqHrN--32" style="rounded=0;orthogonalLoop=1;jettySize=auto;html=1;exitX=0;exitY=0;exitDx=0;exitDy=0;entryX=0;entryY=1;entryDx=0;entryDy=0;" parent="1" source="luFUjq63p9r3agRqHrN--31" target="luFUjq63p9r3agRqHrN--21" edge="1">
          <mxGeometry relative="1" as="geometry" />
        </mxCell>
        <mxCell id="luFUjq63p9r3agRqHrN--31" value="удаление друга" style="ellipse;whiteSpace=wrap;html=1;" parent="1" vertex="1">
          <mxGeometry x="700" y="575" width="95" height="40" as="geometry" />
        </mxCell>
        <mxCell id="luFUjq63p9r3agRqHrN--33" value="взаимодействие с группами" style="ellipse;whiteSpace=wrap;html=1;" parent="1" vertex="1">
          <mxGeometry x="409" y="500" width="123" height="50" as="geometry" />
        </mxCell>
        <mxCell id="luFUjq63p9r3agRqHrN--37" style="rounded=0;orthogonalLoop=1;jettySize=auto;html=1;exitX=0.5;exitY=0;exitDx=0;exitDy=0;entryX=0;entryY=0.5;entryDx=0;entryDy=0;" parent="1" source="luFUjq63p9r3agRqHrN--34" target="luFUjq63p9r3agRqHrN--33" edge="1">
          <mxGeometry relative="1" as="geometry" />
        </mxCell>
        <mxCell id="luFUjq63p9r3agRqHrN--34" value="послать заявку на вступление" style="ellipse;whiteSpace=wrap;html=1;" parent="1" vertex="1">
          <mxGeometry x="305" y="530" width="95" height="40" as="geometry" />
        </mxCell>
        <mxCell id="luFUjq63p9r3agRqHrN--36" style="rounded=0;orthogonalLoop=1;jettySize=auto;html=1;entryX=0.5;entryY=1;entryDx=0;entryDy=0;" parent="1" source="luFUjq63p9r3agRqHrN--35" target="luFUjq63p9r3agRqHrN--33" edge="1">
          <mxGeometry relative="1" as="geometry" />
        </mxCell>
        <mxCell id="luFUjq63p9r3agRqHrN--35" value="покинуть" style="ellipse;whiteSpace=wrap;html=1;" parent="1" vertex="1">
          <mxGeometry x="400" y="570" width="95" height="40" as="geometry" />
        </mxCell>
        <mxCell id="luFUjq63p9r3agRqHrN--41" value="создавать и удалять пометки" style="ellipse;whiteSpace=wrap;html=1;" parent="1" vertex="1">
          <mxGeometry x="375" y="400" width="123" height="50" as="geometry" />
        </mxCell>
        <mxCell id="luFUjq63p9r3agRqHrN--44" style="edgeStyle=orthogonalEdgeStyle;rounded=0;orthogonalLoop=1;jettySize=auto;html=1;exitX=0;exitY=1;exitDx=0;exitDy=0;exitPerimeter=0;entryX=0.5;entryY=0;entryDx=0;entryDy=0;entryPerimeter=0;" parent="1" source="luFUjq63p9r3agRqHrN--3" target="luFUjq63p9r3agRqHrN--2" edge="1">
          <mxGeometry relative="1" as="geometry">
            <Array as="points">
              <mxPoint x="547" y="330" />
            </Array>
          </mxGeometry>
        </mxCell>
        <mxCell id="luFUjq63p9r3agRqHrN--45" value="работа со своей группой" style="ellipse;whiteSpace=wrap;html=1;" parent="1" vertex="1">
          <mxGeometry x="624" y="400" width="123" height="50" as="geometry" />
        </mxCell>
        <mxCell id="luFUjq63p9r3agRqHrN--53" style="rounded=0;orthogonalLoop=1;jettySize=auto;html=1;exitX=0;exitY=1;exitDx=0;exitDy=0;entryX=1;entryY=0;entryDx=0;entryDy=0;" parent="1" source="luFUjq63p9r3agRqHrN--47" target="luFUjq63p9r3agRqHrN--45" edge="1">
          <mxGeometry relative="1" as="geometry" />
        </mxCell>
        <mxCell id="luFUjq63p9r3agRqHrN--47" value="создание" style="ellipse;whiteSpace=wrap;html=1;" parent="1" vertex="1">
          <mxGeometry x="765" y="380" width="60" height="30" as="geometry" />
        </mxCell>
        <mxCell id="luFUjq63p9r3agRqHrN--51" style="rounded=0;orthogonalLoop=1;jettySize=auto;html=1;entryX=1;entryY=0.5;entryDx=0;entryDy=0;" parent="1" source="luFUjq63p9r3agRqHrN--48" target="luFUjq63p9r3agRqHrN--45" edge="1">
          <mxGeometry relative="1" as="geometry" />
        </mxCell>
        <mxCell id="luFUjq63p9r3agRqHrN--48" value="изменение" style="ellipse;whiteSpace=wrap;html=1;" parent="1" vertex="1">
          <mxGeometry x="787" y="420" width="70" height="30" as="geometry" />
        </mxCell>
        <mxCell id="luFUjq63p9r3agRqHrN--52" style="rounded=0;orthogonalLoop=1;jettySize=auto;html=1;entryX=1;entryY=1;entryDx=0;entryDy=0;" parent="1" source="luFUjq63p9r3agRqHrN--49" target="luFUjq63p9r3agRqHrN--45" edge="1">
          <mxGeometry relative="1" as="geometry" />
        </mxCell>
        <mxCell id="luFUjq63p9r3agRqHrN--49" value="удаление" style="ellipse;whiteSpace=wrap;html=1;" parent="1" vertex="1">
          <mxGeometry x="765" y="450" width="60" height="30" as="geometry" />
        </mxCell>
        <mxCell id="luFUjq63p9r3agRqHrN--66" style="rounded=0;orthogonalLoop=1;jettySize=auto;html=1;exitX=0;exitY=0.5;exitDx=0;exitDy=0;entryX=1;entryY=0.5;entryDx=0;entryDy=0;" parent="1" source="luFUjq63p9r3agRqHrN--54" target="luFUjq63p9r3agRqHrN--63" edge="1">
          <mxGeometry relative="1" as="geometry" />
        </mxCell>
        <mxCell id="luFUjq63p9r3agRqHrN--54" value="добавление по заявке или приглашение учасника" style="ellipse;whiteSpace=wrap;html=1;" parent="1" vertex="1">
          <mxGeometry x="864.25" y="305" width="176" height="40" as="geometry" />
        </mxCell>
        <mxCell id="luFUjq63p9r3agRqHrN--65" style="rounded=0;orthogonalLoop=1;jettySize=auto;html=1;exitX=0.5;exitY=1;exitDx=0;exitDy=0;entryX=0.5;entryY=0;entryDx=0;entryDy=0;" parent="1" source="luFUjq63p9r3agRqHrN--57" target="luFUjq63p9r3agRqHrN--63" edge="1">
          <mxGeometry relative="1" as="geometry" />
        </mxCell>
        <mxCell id="luFUjq63p9r3agRqHrN--57" value="бан учасника группы" style="ellipse;whiteSpace=wrap;html=1;" parent="1" vertex="1">
          <mxGeometry x="720" y="240" width="131.5" height="40" as="geometry" />
        </mxCell>
        <mxCell id="luFUjq63p9r3agRqHrN--62" style="edgeStyle=orthogonalEdgeStyle;rounded=0;orthogonalLoop=1;jettySize=auto;html=1;exitX=0.5;exitY=0;exitDx=0;exitDy=0;entryX=1;entryY=1;entryDx=0;entryDy=0;entryPerimeter=0;endArrow=none;endFill=0;" parent="1" source="luFUjq63p9r3agRqHrN--45" target="luFUjq63p9r3agRqHrN--3" edge="1">
          <mxGeometry relative="1" as="geometry">
            <Array as="points">
              <mxPoint x="680" y="400" />
              <mxPoint x="680" y="330" />
            </Array>
          </mxGeometry>
        </mxCell>
        <mxCell id="luFUjq63p9r3agRqHrN--63" value="работа с аккаунтами" style="ellipse;whiteSpace=wrap;html=1;" parent="1" vertex="1">
          <mxGeometry x="724.25" y="300" width="123" height="50" as="geometry" />
        </mxCell>
        <mxCell id="luFUjq63p9r3agRqHrN--64" style="rounded=0;orthogonalLoop=1;jettySize=auto;html=1;exitX=0;exitY=0;exitDx=0;exitDy=0;entryX=1;entryY=0.3333333333333333;entryDx=0;entryDy=0;entryPerimeter=0;endArrow=none;endFill=0;" parent="1" source="luFUjq63p9r3agRqHrN--63" target="luFUjq63p9r3agRqHrN--3" edge="1">
          <mxGeometry relative="1" as="geometry" />
        </mxCell>
        <mxCell id="luFUjq63p9r3agRqHrN--69" style="edgeStyle=orthogonalEdgeStyle;rounded=0;orthogonalLoop=1;jettySize=auto;html=1;exitX=0.5;exitY=0;exitDx=0;exitDy=0;entryX=0;entryY=1;entryDx=0;entryDy=0;entryPerimeter=0;endArrow=none;endFill=0;" parent="1" source="luFUjq63p9r3agRqHrN--33" target="luFUjq63p9r3agRqHrN--2" edge="1">
          <mxGeometry relative="1" as="geometry">
            <Array as="points">
              <mxPoint x="470" y="470" />
            </Array>
          </mxGeometry>
        </mxCell>
        <mxCell id="luFUjq63p9r3agRqHrN--70" value="слияние 2 групп" style="ellipse;whiteSpace=wrap;html=1;" parent="1" vertex="1">
          <mxGeometry x="565.5" y="190" width="123" height="50" as="geometry" />
        </mxCell>
        <mxCell id="luFUjq63p9r3agRqHrN--71" style="edgeStyle=orthogonalEdgeStyle;rounded=0;orthogonalLoop=1;jettySize=auto;html=1;exitX=0.5;exitY=1;exitDx=0;exitDy=0;entryX=0.5;entryY=0;entryDx=0;entryDy=0;entryPerimeter=0;endArrow=none;endFill=0;" parent="1" source="luFUjq63p9r3agRqHrN--70" target="luFUjq63p9r3agRqHrN--3" edge="1">
          <mxGeometry relative="1" as="geometry" />
        </mxCell>
        <mxCell id="luFUjq63p9r3agRqHrN--77" style="rounded=0;orthogonalLoop=1;jettySize=auto;html=1;exitX=0.5;exitY=0;exitDx=0;exitDy=0;entryX=0;entryY=1;entryDx=0;entryDy=0;endArrow=none;endFill=0;startArrow=classic;startFill=1;" parent="1" source="luFUjq63p9r3agRqHrN--72" target="luFUjq63p9r3agRqHrN--76" edge="1">
          <mxGeometry relative="1" as="geometry" />
        </mxCell>
        <mxCell id="luFUjq63p9r3agRqHrN--72" value="работа с аккаунтом" style="ellipse;whiteSpace=wrap;html=1;" parent="1" vertex="1">
          <mxGeometry x="403.5" y="200" width="123" height="50" as="geometry" />
        </mxCell>
        <mxCell id="luFUjq63p9r3agRqHrN--73" style="rounded=0;orthogonalLoop=1;jettySize=auto;html=1;exitX=0.5;exitY=1;exitDx=0;exitDy=0;entryX=0.5;entryY=0;entryDx=0;entryDy=0;entryPerimeter=0;endArrow=none;endFill=0;" parent="1" source="luFUjq63p9r3agRqHrN--72" target="luFUjq63p9r3agRqHrN--1" edge="1">
          <mxGeometry relative="1" as="geometry" />
        </mxCell>
        <mxCell id="luFUjq63p9r3agRqHrN--78" style="rounded=0;orthogonalLoop=1;jettySize=auto;html=1;exitX=0.5;exitY=1;exitDx=0;exitDy=0;entryX=0.5;entryY=0;entryDx=0;entryDy=0;" parent="1" source="luFUjq63p9r3agRqHrN--74" target="luFUjq63p9r3agRqHrN--72" edge="1">
          <mxGeometry relative="1" as="geometry" />
        </mxCell>
        <mxCell id="luFUjq63p9r3agRqHrN--74" value="бан" style="ellipse;whiteSpace=wrap;html=1;" parent="1" vertex="1">
          <mxGeometry x="417.5" y="140" width="95" height="40" as="geometry" />
        </mxCell>
        <mxCell id="luFUjq63p9r3agRqHrN--79" style="rounded=0;orthogonalLoop=1;jettySize=auto;html=1;exitX=1;exitY=1;exitDx=0;exitDy=0;entryX=0.5;entryY=0;entryDx=0;entryDy=0;" parent="1" source="luFUjq63p9r3agRqHrN--75" target="luFUjq63p9r3agRqHrN--72" edge="1">
          <mxGeometry relative="1" as="geometry" />
        </mxCell>
        <mxCell id="luFUjq63p9r3agRqHrN--75" value="просмотр всех" style="ellipse;whiteSpace=wrap;html=1;" parent="1" vertex="1">
          <mxGeometry x="314" y="130" width="95" height="40" as="geometry" />
        </mxCell>
        <mxCell id="luFUjq63p9r3agRqHrN--76" value="сообщение о нарушении" style="ellipse;whiteSpace=wrap;html=1;" parent="1" vertex="1">
          <mxGeometry x="517" y="130" width="95" height="40" as="geometry" />
        </mxCell>
        <mxCell id="luFUjq63p9r3agRqHrN--80" value="удаление групп" style="ellipse;whiteSpace=wrap;html=1;" parent="1" vertex="1">
          <mxGeometry x="305" y="240" width="93" height="40" as="geometry" />
        </mxCell>
        <mxCell id="luFUjq63p9r3agRqHrN--81" style="rounded=0;orthogonalLoop=1;jettySize=auto;html=1;exitX=1;exitY=0.5;exitDx=0;exitDy=0;entryX=0;entryY=0.3333333333333333;entryDx=0;entryDy=0;entryPerimeter=0;endArrow=none;endFill=0;" parent="1" source="luFUjq63p9r3agRqHrN--80" target="luFUjq63p9r3agRqHrN--1" edge="1">
          <mxGeometry relative="1" as="geometry" />
        </mxCell>
        <mxCell id="luFUjq63p9r3agRqHrN--82" value="работа с БД" style="ellipse;whiteSpace=wrap;html=1;" parent="1" vertex="1">
          <mxGeometry x="305" y="305" width="93" height="40" as="geometry" />
        </mxCell>
        <mxCell id="luFUjq63p9r3agRqHrN--83" style="rounded=0;orthogonalLoop=1;jettySize=auto;html=1;exitX=1;exitY=0.5;exitDx=0;exitDy=0;entryX=0;entryY=1;entryDx=0;entryDy=0;entryPerimeter=0;endArrow=none;endFill=0;" parent="1" source="luFUjq63p9r3agRqHrN--82" target="luFUjq63p9r3agRqHrN--1" edge="1">
          <mxGeometry relative="1" as="geometry" />
        </mxCell>
        <mxCell id="93jyMsqmQKChnYy1ka9G-2" style="rounded=0;orthogonalLoop=1;jettySize=auto;html=1;exitX=0;exitY=0.5;exitDx=0;exitDy=0;entryX=1;entryY=0;entryDx=0;entryDy=0;" edge="1" parent="1" source="93jyMsqmQKChnYy1ka9G-1" target="luFUjq63p9r3agRqHrN--21">
          <mxGeometry relative="1" as="geometry" />
        </mxCell>
        <mxCell id="93jyMsqmQKChnYy1ka9G-1" value="отправка и удаление сообщений" style="ellipse;whiteSpace=wrap;html=1;" vertex="1" parent="1">
          <mxGeometry x="857" y="470" width="95" height="40" as="geometry" />
        </mxCell>
      </root>
    </mxGraphModel>
  </diagram>
</mxfile>
